<?xml version="1.0" encoding="utf-8"?>
<!-- Generator: Adobe Illustrator 27.4.0, SVG Export Plug-In . SVG Version: 6.00 Build 0)  -->
<svg version="1.1" id="Layer_1" xmlns="http://www.w3.org/2000/svg" xmlns:xlink="http://www.w3.org/1999/xlink" x="0px" y="0px"
	 viewBox="0 0 841.89 595.28" style="enable-background:new 0 0 841.89 595.28;" xml:space="preserve">
<style type="text/css">
	.st0{fill:#EF4869;}
</style>
<path class="st0" d="M642.71,263.9H169.08c-3.69,0-6.69-2.99-6.69-6.69v-0.01c0-3.69,2.99-6.69,6.69-6.69h473.63
	c3.69,0,6.69,2.99,6.69,6.69v0.01C649.39,260.91,646.4,263.9,642.71,263.9z"/>
<path class="st0" d="M644.64,263.93l-143.08,72.73c-3.29,1.67-7.31,0.36-8.98-2.94v0c-1.67-3.3-0.36-7.32,2.93-9l143.08-72.73
	c3.29-1.67,7.31-0.36,8.98,2.94v0C649.24,258.22,647.93,262.25,644.64,263.93z"/>
<path class="st0" d="M646.25,251.24l-143.08-72.73c-3.29-1.67-7.31-0.36-8.98,2.94l0,0c-1.67,3.3-0.36,7.32,2.93,9l143.08,72.73
	c3.29,1.67,7.31,0.36,8.98-2.94v0C650.86,256.94,649.54,252.91,646.25,251.24z"/>
</svg>
